<svg width="100" height="27" viewBox="0 0 100 27" fill="none" xmlns="http://www.w3.org/2000/svg">
<path d="M15.5981 14.751C15.4048 16.7988 14.6489 18.3984 13.3306 19.5498C12.0122 20.6924 10.2588 21.2637 8.07031 21.2637C6.54102 21.2637 5.19189 20.9033 4.02295 20.1826C2.86279 19.4531 1.96631 18.4204 1.3335 17.0845C0.700684 15.7485 0.371094 14.1973 0.344727 12.4307V10.6377C0.344727 8.82715 0.665527 7.23193 1.30713 5.85205C1.94873 4.47217 2.86719 3.40869 4.0625 2.66162C5.2666 1.91455 6.65527 1.54102 8.22852 1.54102C10.3467 1.54102 12.0518 2.1167 13.3438 3.26807C14.6357 4.41943 15.3872 6.04541 15.5981 8.146H12.2759C12.1177 6.76611 11.7134 5.77295 11.063 5.1665C10.4214 4.55127 9.47656 4.24365 8.22852 4.24365C6.77832 4.24365 5.66211 4.77539 4.87988 5.83887C4.10645 6.89355 3.71094 8.44482 3.69336 10.4927V12.1934C3.69336 14.2676 4.0625 15.8496 4.80078 16.9395C5.54785 18.0293 6.6377 18.5742 8.07031 18.5742C9.37988 18.5742 10.3643 18.2798 11.0234 17.6909C11.6826 17.1021 12.1001 16.1221 12.2759 14.751H15.5981ZM21.4385 8.29102C22.4844 7.07812 23.8071 6.47168 25.4067 6.47168C28.4478 6.47168 29.9902 8.20752 30.0342 11.6792V21H26.8306V11.7979C26.8306 10.8135 26.6152 10.1191 26.1846 9.71484C25.7627 9.30176 25.1387 9.09521 24.3125 9.09521C23.0293 9.09521 22.0713 9.6665 21.4385 10.8091V21H18.2349V0.75H21.4385V8.29102ZM41.8071 21C41.6665 20.7275 41.5435 20.2837 41.438 19.6685C40.4185 20.7319 39.1704 21.2637 37.6938 21.2637C36.2612 21.2637 35.0923 20.855 34.187 20.0376C33.2817 19.2202 32.8291 18.2095 32.8291 17.0054C32.8291 15.4849 33.3916 14.3203 34.5166 13.5117C35.6504 12.6943 37.2676 12.2856 39.3682 12.2856H41.3325V11.3496C41.3325 10.6113 41.126 10.0225 40.7129 9.58301C40.2998 9.13477 39.6714 8.91064 38.8276 8.91064C38.0981 8.91064 37.5005 9.09521 37.0347 9.46436C36.5688 9.82471 36.3359 10.2861 36.3359 10.8486H33.1323C33.1323 10.0664 33.3916 9.33691 33.9102 8.66016C34.4287 7.97461 35.1318 7.43848 36.0195 7.05176C36.916 6.66504 37.9136 6.47168 39.0122 6.47168C40.6821 6.47168 42.0137 6.89355 43.0068 7.7373C44 8.57227 44.5098 9.75 44.5361 11.2705V17.7041C44.5361 18.9873 44.7163 20.0112 45.0767 20.7759V21H41.8071ZM38.2871 18.6929C38.9199 18.6929 39.5132 18.5391 40.0669 18.2314C40.6294 17.9238 41.0513 17.5107 41.3325 16.9922V14.3027H39.6055C38.4189 14.3027 37.5269 14.5093 36.9292 14.9224C36.3315 15.3354 36.0327 15.9199 36.0327 16.6758C36.0327 17.291 36.2349 17.7832 36.6392 18.1523C37.0522 18.5127 37.6016 18.6929 38.2871 18.6929ZM51.9058 3.26807V6.73535H54.4238V9.1084H51.9058V17.0713C51.9058 17.6162 52.0112 18.0117 52.2222 18.2578C52.4419 18.4951 52.8286 18.6138 53.3823 18.6138C53.7515 18.6138 54.125 18.5698 54.5029 18.4819V20.9604C53.7734 21.1626 53.0703 21.2637 52.3936 21.2637C49.9326 21.2637 48.7021 19.9058 48.7021 17.1899V9.1084H46.3555V6.73535H48.7021V3.26807H51.9058Z" fill="#1FCA74"/>
<path d="M65.4058 21C65.2651 20.7275 65.1421 20.2837 65.0366 19.6685C64.0171 20.7319 62.769 21.2637 61.2925 21.2637C59.8599 21.2637 58.6909 20.855 57.7856 20.0376C56.8804 19.2202 56.4277 18.2095 56.4277 17.0054C56.4277 15.4849 56.9902 14.3203 58.1152 13.5117C59.249 12.6943 60.8662 12.2856 62.9668 12.2856H64.9312V11.3496C64.9312 10.6113 64.7246 10.0225 64.3115 9.58301C63.8984 9.13477 63.27 8.91064 62.4263 8.91064C61.6968 8.91064 61.0991 9.09521 60.6333 9.46436C60.1675 9.82471 59.9346 10.2861 59.9346 10.8486H56.731C56.731 10.0664 56.9902 9.33691 57.5088 8.66016C58.0273 7.97461 58.7305 7.43848 59.6182 7.05176C60.5146 6.66504 61.5122 6.47168 62.6108 6.47168C64.2808 6.47168 65.6123 6.89355 66.6055 7.7373C67.5986 8.57227 68.1084 9.75 68.1348 11.2705V17.7041C68.1348 18.9873 68.3149 20.0112 68.6753 20.7759V21H65.4058ZM61.8857 18.6929C62.5186 18.6929 63.1118 18.5391 63.6655 18.2314C64.228 17.9238 64.6499 17.5107 64.9312 16.9922V14.3027H63.2041C62.0176 14.3027 61.1255 14.5093 60.5278 14.9224C59.9302 15.3354 59.6313 15.9199 59.6313 16.6758C59.6313 17.291 59.8335 17.7832 60.2378 18.1523C60.6509 18.5127 61.2002 18.6929 61.8857 18.6929ZM83.9814 14.0127C83.9814 16.2188 83.4805 17.981 82.4785 19.2993C81.4766 20.6089 80.1318 21.2637 78.4443 21.2637C76.8799 21.2637 75.6274 20.7495 74.687 19.7212V26.4844H71.4834V6.73535H74.4365L74.5684 8.18555C75.5088 7.04297 76.7876 6.47168 78.4048 6.47168C80.145 6.47168 81.5073 7.12207 82.4917 8.42285C83.4849 9.71484 83.9814 11.5122 83.9814 13.8149V14.0127ZM80.791 13.7358C80.791 12.312 80.5054 11.1826 79.9341 10.3477C79.3716 9.5127 78.563 9.09521 77.5083 9.09521C76.1987 9.09521 75.2583 9.63574 74.687 10.7168V17.0449C75.2671 18.1523 76.2163 18.7061 77.5347 18.7061C78.5542 18.7061 79.3496 18.2974 79.9209 17.48C80.501 16.6538 80.791 15.4058 80.791 13.7358ZM99.1953 14.0127C99.1953 16.2188 98.6943 17.981 97.6924 19.2993C96.6904 20.6089 95.3457 21.2637 93.6582 21.2637C92.0938 21.2637 90.8413 20.7495 89.9009 19.7212V26.4844H86.6973V6.73535H89.6504L89.7822 8.18555C90.7227 7.04297 92.0015 6.47168 93.6187 6.47168C95.3589 6.47168 96.7212 7.12207 97.7056 8.42285C98.6987 9.71484 99.1953 11.5122 99.1953 13.8149V14.0127ZM96.0049 13.7358C96.0049 12.312 95.7192 11.1826 95.1479 10.3477C94.5854 9.5127 93.7769 9.09521 92.7222 9.09521C91.4126 9.09521 90.4722 9.63574 89.9009 10.7168V17.0449C90.481 18.1523 91.4302 18.7061 92.7485 18.7061C93.7681 18.7061 94.5635 18.2974 95.1348 17.48C95.7148 16.6538 96.0049 15.4058 96.0049 13.7358Z" fill="white"/>
</svg>
